<?xml version="1.0" standalone="no"?>
<!DOCTYPE svg PUBLIC "-//W3C//DTD SVG 20010904//EN"
 "http://www.w3.org/TR/2001/REC-SVG-20010904/DTD/svg10.dtd">
<svg version="1.0" xmlns="http://www.w3.org/2000/svg"
 width="512.000000pt" height="512.000000pt" viewBox="0 0 512.000000 512.000000"
 preserveAspectRatio="xMidYMid meet">

<g transform="translate(0.000000,512.000000) scale(0.100000,-0.100000)"
fill="#000000" stroke="none">
<path d="M2595 4759 c-667 -65 -1212 -384 -1549 -906 -25 -39 -46 -76 -46 -81
0 -6 14 -14 31 -17 18 -4 51 -26 75 -50 68 -69 82 -155 39 -242 -37 -73 -89
-107 -174 -111 -51 -2 -75 1 -104 16 -20 11 -39 17 -41 13 -2 -3 -15 -53 -30
-111 -93 -384 -67 -791 75 -1155 162 -418 522 -758 958 -905 99 -34 86 -36
-93 -15 -235 28 -466 85 -676 168 l-111 44 -14 -27 c-16 -31 -33 -40 -76 -40
-24 0 -29 -4 -29 -25 0 -64 -48 -105 -105 -91 -28 7 -55 52 -55 91 0 22 -4 25
-34 25 -69 0 -107 70 -66 123 17 21 30 27 61 27 36 0 39 2 39 28 0 24 -10 34
-87 78 -49 28 -151 87 -228 131 -210 121 -301 145 -340 90 -25 -35 -18 -65 41
-175 246 -466 598 -810 1066 -1042 342 -170 685 -250 1068 -250 280 0 487 33
752 120 482 158 851 446 1104 861 239 392 332 898 248 1352 -23 126 -19 120
-60 92 -96 -65 -236 -29 -293 75 -70 126 10 282 156 306 l42 6 -29 57 c-54
108 -154 245 -254 349 -240 249 -521 400 -866 467 l-75 14 155 -4 c203 -6 412
-39 629 -101 22 -6 23 -5 16 25 -5 26 -2 36 23 61 20 20 41 30 60 30 27 0 30
4 36 39 7 45 44 81 83 81 36 0 73 -42 73 -83 0 -33 2 -35 42 -40 113 -15 98
-157 -16 -157 -22 0 -26 -5 -26 -27 1 -26 12 -34 178 -114 272 -133 463 -266
618 -433 85 -90 132 -161 169 -253 26 -64 55 -93 92 -93 29 0 73 41 73 69 0
78 -173 458 -287 631 -495 747 -1362 1165 -2238 1079z m-7 -995 c30 -34 29
-85 -2 -121 -19 -22 -32 -28 -66 -28 -95 0 -126 123 -42 170 36 20 81 11 110
-21z m73 -734 c199 -61 329 -240 329 -450 0 -116 -48 -248 -109 -304 -27 -25
-27 -36 2 -36 41 -1 77 -45 77 -95 0 -37 -50 -85 -88 -85 -46 0 -92 43 -92 86
l0 34 -37 -19 c-147 -74 -339 -67 -472 18 -59 38 -128 110 -164 171 -76 131
-75 328 3 465 33 58 128 153 180 180 109 57 256 71 371 35z m-335 -1691 c115
-55 114 -218 0 -270 -53 -24 -80 -24 -130 1 -60 29 -89 80 -84 145 5 62 29 97
83 125 51 25 78 25 131 -1z m918 -230 c31 -36 33 -63 7 -106 -36 -58 -125 -53
-154 10 -31 65 10 127 83 127 30 0 44 -6 64 -31z"/>
<path d="M440 2818 c-28 -15 -50 -52 -50 -86 0 -35 52 -82 90 -82 42 0 90 47
90 89 0 62 -75 107 -130 79z"/>
<path d="M4635 2728 c-52 -30 -62 -102 -20 -143 46 -47 134 -22 149 41 19 72
-65 138 -129 102z"/>
</g>
</svg>
